<?xml version="1.0" encoding="UTF-8"?>
<svg id="Layer_1" data-name="Layer 1" xmlns="http://www.w3.org/2000/svg" viewBox="0 0 2400 2400">
  <defs>
    <style>
      .cls-1 {
        fill: #fff;
      }
    </style>
  </defs>
  <path class="cls-1" d="M476.54,384.35c30.22,15.84,59.91,32.8,90.79,47.24,39.82,18.62,73.19,44.42,104.33,75.6,51.33,51.38,106.27,99.17,159.53,148.63,64.9,60.27,126.01,124.06,179.95,194.47,37.72,49.23,71.87,100.58,93.91,159.07.36.97,1.23,1.75,2.96,4.12,3.44-5,6.76-9.45,9.7-14.14,63.61-101.57,127.51-202.99,198.08-299.93,30.94-42.5,64.44-83.14,97.2-124.29,4.53-5.69,10.87-10.72,17.41-13.91,54.54-26.63,109.31-52.76,164.03-79.02,2.3-1.1,4.71-1.99,10.66-4.48-5.45,7.71-8.59,12.41-11.98,16.91-79.12,105.23-148.86,216.07-201.4,337.13-49.58,114.25-87.03,232.27-108.94,355.03-30.03,168.25-4.23,327.82,73.49,479.66,37.39,73.04,81.31,142.07,126.68,210.24,33.64,50.56,67.68,100.86,102.16,150.84,12.56,18.2,26.92,35.15,42.27,55.03-7.73-2.43-12.78-3.91-17.76-5.6-52.32-17.76-104.67-35.46-156.9-53.5-4.89-1.69-9.79-4.8-13.42-8.5-55.86-56.91-111.93-113.62-167.1-171.18-101.37-105.76-180.67-225.84-232.53-363.3-7.83-20.76-14.11-42.11-21.17-63.16-1.14-3.39-2.62-6.66-4.49-11.38-3.37,4.84-5.95,8.26-8.23,11.87-56.62,89.35-124.1,169.78-199.99,243.29-37.8,36.61-76.33,72.47-113.57,109.64-23.39,23.35-44.83,48.65-67.54,72.7-4.65,4.92-10.5,9.57-16.72,12-34.82,13.59-69.92,26.48-104.94,39.56-2.36.88-4.85,1.38-9.73,2.73,3.54-8.12,5.94-13.93,8.57-19.63,31.61-68.54,69.65-133.6,107.95-198.5,41.06-69.58,81.92-139.26,114.34-213.45,32.3-73.91,55.57-150.4,65.16-230.69,9.57-80.08,2.65-159.08-16.78-237.14-25.23-101.32-68.63-195.03-120.21-285.23-40.9-71.53-82.84-142.47-123.12-214.35-17.99-32.11-33.05-65.86-49.35-98.91-2.09-4.24-3.64-8.75-5.43-13.14.71-.78,1.43-1.56,2.14-2.34Z"/>
  <path class="cls-1" d="M2143.31,2194.35c-6.12-.98-8.75-1.18-11.27-1.84-72.26-19.19-144.54-38.32-216.71-57.83-6.55-1.77-13.3-5-18.47-9.34-78.99-66.27-156.45-134.25-230.01-206.56-85.45-84-162.26-174.93-223.33-278.46-32.87-55.73-60.07-114-80.54-175.5-38.01-114.16-37.03-227.75,1.96-341.47,27.19-79.31,64.38-153.91,104.78-227.05,59.07-106.94,126.21-208.81,196.48-308.59,55.27-78.47,112.19-155.78,168.65-233.41,4.31-5.93,10.1-11.52,16.43-15.13,66.62-37.99,130.02-80.49,187.64-131.3.79-.7,1.85-1.09,3.84-2.22,1.17,7.25-3.22,12.22-5.79,17.33-50.16,99.76-100.32,199.51-150.85,299.08-44.39,87.49-90.18,174.34-126.52,265.6-41.34,103.83-76.44,209.58-98,319.64-36.43,185.97-15.08,364.42,65.34,536.06,46.52,99.3,106.66,189.76,174.5,275.58,40.11,50.74,84.62,97.44,128.19,145.05,34.05,37.2,67.05,75.36,100.43,113.17,3.9,4.41,7.22,9.33,13.22,17.18Z"/>
  <path class="cls-1" d="M315.58,543.79c34.55,18,69.16,35.89,103.57,54.16,4.09,2.17,7.77,5.92,10.48,9.75,80.79,114.13,162.26,227.83,231.97,349.31,24.31,42.36,46.11,85.9,60.37,132.87,20.08,66.16,15.41,131.67-4.94,196.75-34.22,109.38-94.19,203.17-175.19,283.41-45.04,44.62-92.54,86.77-139.08,129.88-3.48,3.22-7.85,5.96-12.3,7.58-41.74,15.17-83.59,30.05-125.43,44.95-1.87.67-3.97.7-8.34,1.42,5.55-7.43,9.82-12.92,13.85-18.57,45.97-64.39,93.21-127.93,137.47-193.48,42.63-63.13,75.58-131.37,96.16-205.18,22.82-81.87,25.11-164.59,11.15-248.01-18.63-111.34-55.57-217.03-100.93-319.9-30.6-69.38-62.94-137.99-94.48-206.95-2.4-5.25-4.59-10.61-6.88-15.91.85-.69,1.71-1.38,2.56-2.07Z"/>
  <path class="cls-1" d="M1321.5,481.54c-.04,130.91-105.98,237.19-236.68,237.45-131.17.26-238.44-106.84-238.28-237.91.16-131.35,107.03-237.48,238.74-237.09,130.95.39,236.27,106.3,236.22,237.55Z"/>
</svg>